<svg width="24" height="24" viewBox="0 0 24 24" fill="none" xmlns="http://www.w3.org/2000/svg">
<path d="M14.2519 9.74812C13.9571 9.45537 13.9562 8.97879 14.25 8.685L18.435 4.5H14.25C13.8358 4.5 13.5 4.16421 13.5 3.75C13.5 3.33579 13.8358 3 14.25 3H20C20.5523 3 21 3.44772 21 4V9.74996C21 10.1612 20.6688 10.4958 20.2575 10.4999C19.8404 10.5041 19.5 10.1671 19.5 9.74996V5.5575L15.3113 9.74625C15.0189 10.0386 14.5452 10.0394 14.2519 9.74812Z" fill="#002173"/>
<path d="M4.71484 5.78516H11.4648C11.8791 5.78516 12.2148 6.12094 12.2148 6.53516C12.2148 6.94937 11.8791 7.28516 11.4648 7.28516H4.71484V19.2852H16.7148V12.5352C16.7148 12.1209 17.0506 11.7852 17.4648 11.7852C17.8791 11.7852 18.2148 12.1209 18.2148 12.5352V19.2852C18.2148 19.683 18.0568 20.0645 17.7755 20.3458C17.4942 20.6271 17.1127 20.7852 16.7148 20.7852H4.71484C4.31702 20.7852 3.93549 20.6271 3.65418 20.3458C3.37288 20.0645 3.21484 19.683 3.21484 19.2852V7.28516C3.21484 6.88733 3.37288 6.5058 3.65418 6.2245C3.93549 5.94319 4.31702 5.78516 4.71484 5.78516Z" fill="#002173"/>
</svg>
